<?xml version="1.0" encoding="UTF-8" standalone="no"?>
<!-- Created with Inkscape (http://www.inkscape.org/) -->

<svg
   xmlns:dc="http://purl.org/dc/elements/1.1/"
   xmlns:cc="http://creativecommons.org/ns#"
   xmlns:rdf="http://www.w3.org/1999/02/22-rdf-syntax-ns#"
   xmlns:svg="http://www.w3.org/2000/svg"
   xmlns="http://www.w3.org/2000/svg"
   xmlns:sodipodi="http://sodipodi.sourceforge.net/DTD/sodipodi-0.dtd"
   xmlns:inkscape="http://www.inkscape.org/namespaces/inkscape"
   width="135.87236mm"
   height="85.039734mm"
   viewBox="0 0 135.87236 85.039734"
   version="1.1"
   id="svg3838"
   inkscape:version="0.92.3 (2405546, 2018-03-11)"
   sodipodi:docname="background.svg"
   inkscape:export-filename="/home/lliurex/git/testkid/rsrc/banner.png"
   inkscape:export-xdpi="96"
   inkscape:export-ydpi="96">
  <defs
     id="defs3832">
    <linearGradient
       id="gradient0"
       gradientUnits="userSpaceOnUse"
       x1="26.68"
       y1="46.52"
       x2="34.48"
       y2="36.389999">
      <stop
         offset="0"
         stop-color="#c6d7f5"
         id="stop1289" />
      <stop
         offset="1"
         stop-color="#6b94dd"
         id="stop1291" />
    </linearGradient>
    <linearGradient
       id="gradient2"
       gradientUnits="userSpaceOnUse"
       x1="70.400002"
       y1="34.52"
       x2="71.080002"
       y2="50.830002">
      <stop
         offset="0"
         stop-color="#a3043c"
         id="stop1313" />
      <stop
         offset="1"
         stop-color="#ffdce6"
         id="stop1315" />
    </linearGradient>
    <linearGradient
       id="gradient3"
       gradientUnits="userSpaceOnUse"
       x1="138.84"
       y1="49.93"
       x2="86.239998"
       y2="116.1">
      <stop
         offset="0"
         stop-color="#c13e3e"
         id="stop1322" />
      <stop
         offset="1"
         stop-color="#e27a7a"
         id="stop1324" />
    </linearGradient>
    <linearGradient
       id="gradient4"
       gradientUnits="userSpaceOnUse"
       x1="-19.870001"
       y1="-1.53"
       x2="5.48"
       y2="-26.290001">
      <stop
         offset="0"
         stop-color="#ffec4b"
         id="stop1331" />
      <stop
         offset="1"
         stop-color="#f0a506"
         id="stop1333" />
    </linearGradient>
    <linearGradient
       id="gradient5"
       gradientUnits="userSpaceOnUse"
       x1="30.5"
       y1="-22.809999"
       x2="56.009998"
       y2="-9.1300001">
      <stop
         offset="0"
         stop-color="#ffffff"
         id="stop1338" />
      <stop
         offset="1"
         stop-color="#fff289"
         id="stop1340" />
    </linearGradient>
    <linearGradient
       id="gradient6"
       gradientUnits="userSpaceOnUse"
       x1="53.009998"
       y1="-9.5500002"
       x2="69.940002"
       y2="3.4300001">
      <stop
         offset="0"
         stop-color="#f99b05"
         id="stop1345" />
      <stop
         offset="1"
         stop-color="#fcb23d"
         id="stop1347" />
    </linearGradient>
  </defs>
  <sodipodi:namedview
     id="base"
     pagecolor="#ffffff"
     bordercolor="#666666"
     borderopacity="1.0"
     inkscape:pageopacity="0.0"
     inkscape:pageshadow="2"
     inkscape:zoom="0.35"
     inkscape:cx="-326.25013"
     inkscape:cy="243.90606"
     inkscape:document-units="mm"
     inkscape:current-layer="flowRoot121"
     showgrid="false"
     inkscape:window-width="1920"
     inkscape:window-height="950"
     inkscape:window-x="0"
     inkscape:window-y="32"
     inkscape:window-maximized="1" />
  <metadata
     id="metadata3835">
    <rdf:RDF>
      <cc:Work
         rdf:about="">
        <dc:format>image/svg+xml</dc:format>
        <dc:type
           rdf:resource="http://purl.org/dc/dcmitype/StillImage" />
        <dc:title></dc:title>
      </cc:Work>
    </rdf:RDF>
  </metadata>
  <g
     inkscape:label="Capa 1"
     inkscape:groupmode="layer"
     id="layer1"
     transform="translate(332.85521,-24.462517)">
    <g
       aria-label="EXAMPLE CONFIG APP"
       transform="matrix(0.26458333,0,0,0.26458333,-332.61905,18.658335)"
       style="font-style:normal;font-variant:normal;font-weight:normal;font-stretch:normal;font-size:128px;line-height:1.25;font-family:Breip;-inkscape-font-specification:Breip;letter-spacing:0px;word-spacing:0px;fill:#000000;fill-opacity:1;stroke:none"
       id="flowRoot121">
      <path
         d="m 28.482422,32.839844 q 11.25,-2.375 26.25,-0.875 -7.75,-0.75 6.125,0.375 0.5,0.125 1,0.125 4,0.375 6.125,2.125 0.875,0.75 -0.125,1.5 -4,2.5 -11.5,2.625 -3,0.125 -4.625,0.25 l -14.875,1.5 q -4.625,0.125 -9.125,-1 -2.25,-0.625 -1.5,-4.125 0.5,-2.25 2.25,-2.5 z m 0.125,41.625 q 5.125,-3.875 13.75,-5.875 4.125,-1 4.375,-1 l 9.375,-3 q 4.625,-1.125 8,0.25 3,1.25 -4.75,4.75 -3.25,1.75 -3.375,1.75 -2.625,1.125 -11.75,3.625 -2.375,0.5 -4.5,1.25 -0.875,0.375 -5.125,3 -2.625,1.75 -5.125,1.25 -2.25,-0.25 -2.125,-3.5 0,-1.75 1.25,-2.5 z m 26.25,16.625 q -0.875,-0.75 -0.875,0.625 l 0.625,5.625 q -0.125,0.875 -0.625,1.125 l -5.125,4.249996 -1.75,0.875 q -8,3.5 -11.125,4 -1.375,0.125 -2.75,0.125 l -12,0.75 q -5.625,-0.375 -8.25,-4.375 -5.7500001,-8.624996 -1.875,-21.874996 0.625,-2 1.875,-5.375 l 3.125,-12 4.375,-14.375 q 0.375,-1.75 0.75,-3.625 1.375,-10 0.125,-15.125 -0.125,-0.875 -0.5,-1.625 -1,-3.625 -3.75,-4.375 -1,-0.125 -1.875,0.375 -1.375,0.625 0,3.625 0.875,1.75 0.875,2.75 0.25,6.5 -0.5,10.125 -0.25,1.375 -2.625,9.75 -0.375,0.75 -0.5,1.375 -4.7500001,15.75 -5.2500001,17.5 l -0.25,1.5 q -3.5,14.125 -3.5,14.25 -0.75,3.75 -0.75,7.75 -0.125,7.499996 3.625,13.999996 3,5 8.8750001,6.875 8.75,2.625 18.875,1.375 8.125,-1 16.625,-6 6,-3.25 7.25,-4.75 1.625,-1.75 2,-4 1.25,-6.124996 -5.125,-11.124996 z"
         id="path139"
         inkscape:connector-curvature="0" />
      <path
         d="m 113.23242,102.08984 q -8.125,-10.374996 -19.749998,-29.124996 -1,-1.625 -1.75,-2.875 -2.25,-3.75 -13.5,-17.625 -9.875,-12.5 -8.625,-16.375 0.25,-1 1.5,-1.75 4.625,-2.625 7.625,2.625 l 3.875,7.375 q 0.25,0.625 0.625,1.125 4.625,5.125 12.875,17.375 1.5,2 2.625,3.75 l 12.624998,17.75 q 1.875,2.75 3.625,5.875 l 10.25,14.874996 q 3.5,6.375 2.5,11.375 -0.875,5 -7.375,-4 z m -5.75,-21.874996 q -6.625,10.375 -14.124998,23.124996 -0.75,1.25 -4.75,10.25 -2.375,5.25 -5.875,8.75 -2.125,2.125 -3.125,-0.625 -0.625,-1.625 -0.25,-4.375 0.5,-7.875 6.75,-17.999996 4.875,-7.625 5.875,-9.5 8.124998,-14.75 24.499998,-39.625 0.5,-0.625 0.875,-1.25 l 7.5,-13.5 q 3,-4.375 7.375,-6.875 2.25,-1.375 2,1.875 -0.25,3.875 -2.875,10.375 -3.5,8.25 -12.125,21.625 -1.875,3.125 -3.375,5.5 -0.5,0.875 -6.625,9.625 z"
         id="path141"
         inkscape:connector-curvature="0" />
      <path
         d="m 157.60742,84.714844 q 2.5,-1.125 9.5,-1.5 h 0.875 q 16.625,-0.75 19.625,-0.75 1.75,0.125 3.75,0.25 l 10.125,0.5 q 3.25,0.625 -0.625,2.875 -4.125,2.5 -13.875,2.625 -4.5,0 -6.75,0.125 -8.875,0.75 -13.125,0 -11.375,-2.125 -10.25,-3.625 0.125,-0.375 0.75,-0.5 z m -10.25,34.249996 q -1,2 -3,1.875 -2.25,-0.125 -2.25,-4.125 0,-6.875 3.875,-18.374996 0.875,-2.625 1.375,-4.25 l 4.875,-23.625 q 0,-0.5 0.125,-0.875 6.875,-24.25 7,-24.875 3.25,-9.5 8.125,-18.75 1.375,-2.625 4.875,-1.625 1.875,0.625 2.625,2 5.75,11.375 10,29.125 1.875,7.625 2.75,10.875 4.125,15.875 6.625,33.874996 l 2.125,13.25 q 0.25,4.5 -1.25,8.75 -1.125,3.125 -2.625,-2.375 l -2.125,-8.75 q -1.25,-4.5 -6.625,-29.499996 -0.625,-3.25 -1.375,-6.375 -6.75,-28.5 -9.25,-38.125 -1.25,-4.25 -2.25,-4.25 -1,-0.25 -2.5,4.75 -3.875,11.625 -9.875,37.125 -1.5,6.5 -2.875,11.875 l -5,23.249996 q -1.375,4.625 -3.375,9.125 z"
         id="path143"
         inkscape:connector-curvature="0" />
      <path
         d="m 208.98242,111.58984 q -1.375,-5.5 0.125,-14.374996 0.625,-3.625 0.875,-6 0.5,-4 3.75,-23.75 0,-0.5 0.125,-1.125 2.625,-15.375 3.625,-19.125 l 2.375,-10.375 q 0.875,-2.875 2.625,-5.625 1.75,-3 4.375,-3 1.125,0 1.875,0.875 2.125,3 2.5,9.375 0.25,3.75 0.875,6 l 4.5,16.375 q 1.5,4.125 3.5,8.125 2.75,5.625 8.125,7.125 4.875,1.25 9.25,-2.25 3.625,-3 7.125,-9.5 1.125,-2 1.875,-3.375 l 7.375,-15.5 0.125,-0.125 4.125,-8.25 q 1.5,-2.125 3.875,-3.75 4.125,-2.75 8.875,0.5 3.5,2.375 5.375,8.375 0.125,0.25 0.5,1.375 2.25,7.875 6.5,28.5 0.625,3.5 1.375,6.75 1.625,7.5 2.25,12.375 l 2.75,15.499996 q 0.375,3.625 0,7.5 -0.375,1.875 -3.125,1.625 -1.375,-0.125 -1.875,-1 -1.375,-2.625 -1.375,-8.25 0,-2.5 -0.375,-4.25 -1.125,-5.499996 -3.125,-14.749996 l -4.125,-18.25 q -3.125,-14.75 -4.25,-18.625 l -1.625,-6.25 q -0.625,-1.125 -1.625,-2.125 -1.5,-1.875 -3.875,-0.125 l -0.625,0.5 q -2.125,3.125 -5.5,11 -1.375,3.375 -2.875,6 -7.25,12.125 -9.125,14.625 -1.25,1.75 -2.875,3.625 -3,3.25 -7.875,5.125 -2.375,1.125 -5,0 -7.875,-2.5 -10.375,-4.25 -1.375,-0.75 -2.5,-1.875 -2.5,-2.25 -4.375,-7.625 -0.25,-1 -0.5,-1.625 -2.625,-7.25 -5.375,-18.75 -0.125,-0.375 -1.125,-9.125 0,-0.5 -0.125,-1.125 l -3.5,17.375 q -2.625,10.875 -3.25,14.125 -1.125,6.625 -2.125,15.25 -2.125,16.374996 -2.375,19.999996 0,0.625 1.25,4 0.875,1.875 -0.375,3 -2,2.25 -4.875,1.125 -1.5,-0.625 -1.75,-2 z"
         id="path145"
         inkscape:connector-curvature="0" />
      <path
         d="m 329.10742,117.58984 q -2.125,-17.999996 -3.5,-34.749996 -1.875,-21.75 -2.25,-38 -0.5,-15.125 0.875,-15.125 3.25,-0.25 6.375,-1.75 1,-0.25 2.375,-0.125 8.75,0.875 12.125,2.75 1.125,0.625 2.375,1.5 3.875,2.75 3.5,9.25 0,2.375 -3,5.625 -0.625,0.625 -0.875,1.125 -5.875,7 -11.125,10.5 -1.5,1.125 -7,2.875 -2.625,0.875 -4.25,2.25 -1.75,1.5 -1.25,3.5 0.125,0.625 0.75,0.625 6.875,0.125 13.5,-3.75 6.625,-3.625 13.875,-11.125 0.25,-0.375 1.375,-1.5 4.375,-4.375 5,-8 0.75,-5.25 -2.25,-11 -2.5,-5.125 -7.125,-7.25 -5.75,-2.75 -14.875,-3.25 -6.375,-0.25 -13,1.75 -4,1.375 -4.625,4.125 -0.75,4.75 0,15.25 0.375,2.625 0.375,5 0.875,22.125 1.375,30 1.125,20.625 2.5,34.749996 v 6.375 q 0.5,1.75 2,2.5 2.75,1.375 5.5,-1.125 1.625,-1.375 1.25,-3 z"
         id="path147"
         inkscape:connector-curvature="0" />
      <path
         d="m 369.35742,77.714844 q -2.25,-9.25 -1.5,-27.625 0,-1 0,-1.75 0,-3.125 -0.5,-15.375 -0.125,-2 0.75,-3.5 1.5,-2.5 4.25,-1.375 1.375,0.375 1.625,1.875 0.875,5 0.625,16.875 0,4.75 0.25,8.625 l 1.5,16.375 q 0.75,5 2.75,9.875 5,12.125 8.25,16.375 3,3.749996 7.375,6.624996 8.625,5.5 20.25,4 2,-0.25 4.75,-0.75 5.875,-1 13.625,-6.375 6.75,-4.499996 11.75,-5.874996 2,-0.625 3.625,1.875 1.125,1.75 0.125,2.624996 -10.25,9.125 -19.125,12.5 -2.625,0.875 -5.875,1.75 -11.375,3.125 -22,0.5 l -3.375,-0.875 q -9,-2.625 -15.5,-9.875 -0.75,-1 -1.625,-2 -7.625,-9.999996 -11.125,-21.124996 -0.375,-1.625 -0.875,-3.375 z"
         id="path149"
         inkscape:connector-curvature="0" />
      <path
         d="m 472.73242,32.839844 q 11.25,-2.375 26.25,-0.875 -7.75,-0.75 6.125,0.375 0.5,0.125 1,0.125 4,0.375 6.125,2.125 0.875,0.75 -0.125,1.5 -4,2.5 -11.5,2.625 -3,0.125 -4.625,0.25 l -14.875,1.5 q -4.625,0.125 -9.125,-1 -2.25,-0.625 -1.5,-4.125 0.5,-2.25 2.25,-2.5 z m 0.125,41.625 q 5.125,-3.875 13.75,-5.875 4.125,-1 4.375,-1 l 9.375,-3 q 4.625,-1.125 8,0.25 3,1.25 -4.75,4.75 -3.25,1.75 -3.375,1.75 -2.625,1.125 -11.75,3.625 -2.375,0.5 -4.5,1.25 -0.875,0.375 -5.125,3 -2.625,1.75 -5.125,1.25 -2.25,-0.25 -2.125,-3.5 0,-1.75 1.25,-2.5 z m 26.25,16.625 q -0.875,-0.75 -0.875,0.625 l 0.625,5.625 q -0.125,0.875 -0.625,1.125 l -5.125,4.249996 -1.75,0.875 q -8,3.5 -11.125,4 -1.375,0.125 -2.75,0.125 l -12,0.75 q -5.625,-0.375 -8.25,-4.375 -5.75,-8.624996 -1.875,-21.874996 0.625,-2 1.875,-5.375 l 3.125,-12 4.375,-14.375 q 0.375,-1.75 0.75,-3.625 1.375,-10 0.125,-15.125 -0.125,-0.875 -0.5,-1.625 -1,-3.625 -3.75,-4.375 -1,-0.125 -1.875,0.375 -1.375,0.625 0,3.625 0.875,1.75 0.875,2.75 0.25,6.5 -0.5,10.125 -0.25,1.375 -2.625,9.75 -0.375,0.75 -0.5,1.375 -4.75,15.75 -5.25,17.5 l -0.25,1.5 q -3.5,14.125 -3.5,14.25 -0.75,3.75 -0.75,7.75 -0.125,7.499996 3.625,13.999996 3,5 8.875,6.875 8.75,2.625 18.875,1.375 8.125,-1 16.625,-6 6,-3.25 7.25,-4.75 1.625,-1.75 2,-4 1.25,-6.124996 -5.125,-11.124996 z"
         id="path151"
         inkscape:connector-curvature="0" />
      <path
         d="m 22.73242,156.83984 q 3.75,-3.375 11.75,-6.5 1.625,-0.625 2.75,-1 5.5,-2.25 6.875,-2.25 1.25,-0.125 2.625,0.375 1.875,0.5 1.375,3 -0.125,1.125 -0.875,1.75 -2.75,2 -9.875,4 -3.625,1 -6.25,2.625 -7,4.25 -10.25,9.125 -0.25,0.25 -0.5,0.625 -8.25,13 -10.125,17.125 -2.2500007,5.375 -3.5000007,11.625 -2.375,12.25 2.375,21 0.625,1.25 1.3750007,2.5 5.5,8.625 17.375,9.5 9.5,0.375 24.125,-3.25 10.625,-2.75 17.75,-3.375 6.5,-0.75 10.5,0.5 1.875,0.375 -0.625,1.375 -2,0.5 -13,2.5 -2,0.375 -3.5,0.625 -1.875,0.5 -13.625,4.625 -6.875,2.5 -13.125,2.625 -13.375,0.125 -17.75,-0.875 -5.125,-1.375 -9.5000007,-4.75 -9.37500005,-7.375 -10.00000005,-21 0,-1.25 0,-2.625 0,-11.125 5.87500005,-23.875 -1,2.25 4.125,-8.625 4.0000007,-8.375 11.6250007,-15.625 0.875,-0.875 2,-1.75 z"
         id="path153"
         inkscape:connector-curvature="0" />
      <path
         d="m 168.23242,197.96484 q -2.125,8.875 -5.25,13.75 -5.25,8 -12.25,13.25 -5.875,4.625 -14.75,7.375 -8.375,2.875 -13.875,2.25 -7.5,-0.875 -13.25,-5.25 -5.625,-4.5 -10.5,-12.75 -0.625,-1 -0.625,-1.125 -4.25,-7.25 -5.875,-15.375 -1.125,-7.125 0,-16.375 1.5,-10.625 4.875,-17.5 3.625,-7.75 9.375,-12.25 1.625,-1.25 7.75,-2.75 3.75,-1 4.75,-2.875 0.375,-2 -1,-4 -0.375,-0.625 -1,-0.875 -2.75,-1.25 -7.25,1 -6.125,1.75 -7.875,3.5 -0.75,0.75 -1.125,1.25 -9.25,12.125 -10.125,13.375 -3.875,6.25 -5.125,13.125 -3.625,16.75 0.25,29.25 0.5,1.625 2.375,6.375 6.5,15.25 14.125,21.5 3.625,3.125 9.125,5.5 14.125,6 29.5,-0.5 2.375,-0.875 4.875,-2.25 15.125,-7.125 22.375,-18.75 2.625,-4.5 4.25,-8.25 4.125,-9.25 3.625,-24.375 -0.25,-7.75 -5,-16.875 -3.875,-7.375 -9,-11 -0.375,-0.375 -1,-0.75 -4.75,-3.125 -9.5,-1.375 -2.5,0.875 -2,3.875 0.125,0.875 0.75,1.625 0.875,1.125 4,1 1.75,0 2.75,0.75 4.75,3.5 7.625,9.125 3,5.5 4,13.125 1.375,8.5 0,14.25 z"
         id="path155"
         inkscape:connector-curvature="0" />
      <path
         d="m 177.73242,234.08984 q 0.5,-1.5 3.625,-2.875 1.75,-0.75 2.5,-1.625 2.875,-3.375 4.25,-7.25 3,-9 5.125,-21 l 3,-25.75 1.5,-14.875 q 0.75,-3.625 2.75,-7.25 1.375,-2.625 5.125,-0.25 1.375,0.75 2,1.75 3,4.875 5.5,12.875 1.375,5.125 3.25,9.75 l 2.375,7.875 q 0.625,1.5 1.625,3.5 l 7.5,14.5 q 0.875,1.375 1.875,2.75 4.375,5.875 8.5,7.125 2.25,0.75 8.875,1.875 9.75,1.5 18.5,-8.375 1.375,-1.5 3.125,-3.5 6.25,-7.875 9.625,-20.5 2.75,-9.625 2.75,-9.75 1.5,-4.875 2.625,-18.125 0.375,-3.25 0.875,-6.125 0.5,-2.5 3.75,-2.625 2,-0.25 2.875,1.125 2.125,3 1.5,9 -0.375,2.25 -0.375,3.375 -0.5,6.375 -2.125,12.875 -4.5,16.875 -6.875,22.5 l -1.25,3.125 q -4.25,9.125 -10.75,16 -6.5,6.5 -13.375,8.75 -6.375,1.75 -15.5,0.125 -0.5,0 -1,-0.125 -9.25,-2.125 -15,-6.25 -3,-2.5 -6.125,-8.75 -0.875,-1.5 -1.5,-2.625 -3.375,-6.125 -7.25,-15.875 l -6.125,-19 -3,26.25 -1.5,12.375 q -1.5,6.625 -2.75,9.625 -3.5,9.25 -4.25,10.75 -1,1.5 -2.375,3.125 -4.625,5.875 -9.375,6.5 -0.375,0.25 -0.875,0.25 -2.625,0.25 -3.625,-3 -0.125,-1.25 0,-2.25 z"
         id="path157"
         inkscape:connector-curvature="0" />
      <path
         d="m 328.23242,183.83984 q 5.375,-1.375 12.25,-2.25 l 20.5,-3 q 5.375,-0.5 10.875,-0.125 2.875,0.125 -3.5,2.125 -1.75,0.625 -6.125,1.875 -9.25,2.625 -21.25,4.875 l -10.5,2.25 q -2.625,0.25 -5.375,0.125 -2.125,-0.125 -2.875,-2 -0.25,-0.875 0.125,-1.625 0.875,-1.625 4.375,-2 1,-0.125 1.5,-0.25 z m -21.375,-28.875 -1,-5.625 q 0.125,-1 1.125,-1.625 1.875,-0.875 5.125,1.25 2.25,1.375 3.875,1.375 6.375,-0.125 21.875,-2.5 3,-0.375 5.75,-0.625 l 23.375,-2.125 q 4,-0.5 7.625,-1.5 2.125,-0.625 3,2.625 0.75,2.375 -0.5,3.75 -2.125,2.125 -8,2.375 -2.125,0.25 -3.25,0.5 -3.25,0.875 -13.375,1.25 -2.375,0.125 -4.375,0.375 l -16.25,2.375 q -1.25,0.125 -2.375,0.125 l -9.5,0.875 q -3,-0.125 -5.875,-1.875 -0.75,-0.375 -0.625,1.25 l 1.5,10.375 q 0.125,2.625 0.375,15.625 0.375,15 0,20 l -0.75,14.625 q -0.625,3.875 -1.75,7.875 -2.625,8.875 -3.75,10.75 -1.75,3.125 -5.125,5 -1.875,1 -2,-1.875 0,-0.5 1.125,-8 0.25,-2.25 2.5,-8.25 1,-2.625 1.25,-5 1.125,-10.375 1.375,-33.75 0,-1 0,-1.875 l -0.875,-15.75 -0.5,-11.875 z"
         id="path159"
         inkscape:connector-curvature="0" />
      <path
         d="m 386.23242,150.21484 q 1.625,-4.875 4.875,-5.625 2.375,-0.375 2.875,4.25 0.625,3.5 0.75,14.875 0.125,1.5 0.125,2.875 l 0.5,26.5 q 0.25,4.125 0.875,8.375 l 2.25,25 q 0.25,1.75 0.625,3 0.25,1.625 2,5.25 0.875,1.875 1,5.75 0,2.75 -4.25,-0.5 -1.625,-1 -2.5,-2.125 -2.125,-2.75 -3.25,-9 -0.25,-1.125 -0.5,-2 -2,-9.125 -2.625,-15.25 -2.5,-21.125 -1.25,-24 0.875,-2.25 0,-0.75 -1.5,-1.625 -1.5,-24.875 l -0.625,-8.75 q 0.125,-1.625 0.625,-3 z"
         id="path161"
         inkscape:connector-curvature="0" />
      <path
         d="m 420.48242,186.21484 q 2.5,-7.625 7.75,-15.625 4.25,-6.625 12.24998,-14.875 7.25,-7.25 8.5,-8.25 2.5,-1.875 5.5,-3.375 1,-0.625 1.25,1.375 0.375,1.125 -0.125,2 -0.875,2 -4.25,5.375 -0.75,0.875 -1.375,1.625 l -9.875,11.625 q -0.49998,0.375 -0.87498,1 -4.625,6.375 -7.25,11.75 -3.75,7.375 -5.375,13.5 -2.5,8.875 -2.5,14.875 0,9.375 0.125,10.125 0.375,3.625 2.375,6.875 5.5,9.125 12,9.875 0.875,0.125 1.87498,0.125 17.25,-0.125 24,-1.875 8.75,-2.25 16.5,-8.5 10.5,-8.375 2.125,-24 -0.125,-0.125 -3.5,-3.125 -3.375,-3.25 -1.75,-5.25 2.625,-3.125 7.25,2 1,0.875 1.625,2 4.75,8.25 4.875,16.625 0.25,8.875 -3.75,14.25 -0.375,0.5 -0.75,0.875 -4.875,6.25 -12.875,9.375 -1.5,0.375 -3.375,1.125 -12.125,4.125 -20.5,3.875 -1.75,-0.125 -3.75,-0.375 -12.24998,-1.5 -18.37498,-5.25 -2.75,-1.5 -5.375,-3.875 -3.75,-3.25 -4.625,-10.375 -0.75,-5.75 -0.75,-5.875 -0.625,-4.125 0.25,-12.875 0.125,-0.625 0.125,-1 1.25,-10.625 1.5,-11.875 0.375,-1.875 1.125,-3.875 z"
         id="path163"
         inkscape:connector-curvature="0" />
      <path
         d="m 179.8574,304.71484 q 2.5,-1.125 9.5,-1.5 h 0.875 q 16.625,-0.75 19.625,-0.75 1.75,0.125 3.75,0.25 l 10.125,0.5 q 3.25,0.625 -0.625,2.875 -4.125,2.5 -13.875,2.625 -4.5,0 -6.75,0.125 -8.875,0.75 -13.125,0 -11.375,-2.125 -10.25,-3.625 0.125,-0.375 0.75,-0.5 z m -10.25,34.25 q -1,2 -3,1.875 -2.25,-0.125 -2.25,-4.125 0,-6.875 3.875,-18.375 0.875,-2.625 1.375,-4.25 l 4.875,-23.625 q 0,-0.5 0.125,-0.875 6.875,-24.25 7,-24.875 3.25,-9.5 8.125,-18.75 1.375,-2.625 4.875,-1.625 1.875,0.625 2.625,2 5.75,11.375 10,29.125 1.875,7.625 2.75,10.875 4.125,15.875 6.625,33.875 l 2.125,13.25 q 0.25,4.5 -1.25,8.75 -1.125,3.125 -2.625,-2.375 l -2.125,-8.75 q -1.25,-4.5 -6.625,-29.5 -0.625,-3.25 -1.375,-6.375 -6.75,-28.5 -9.25,-38.125 -1.25,-4.25 -2.25,-4.25 -1,-0.25 -2.5,4.75 -3.875,11.625 -9.875,37.125 -1.5,6.5 -2.875,11.875 l -5,23.25 q -1.375,4.625 -3.375,9.125 z"
         id="path165"
         inkscape:connector-curvature="0" />
      <path
         d="m 247.6074,337.58984 q -2.125,-18 -3.5,-34.75 -1.875,-21.75 -2.25,-38 -0.5,-15.125 0.875,-15.125 3.25,-0.25 6.375,-1.75 1,-0.25 2.375,-0.125 8.75,0.875 12.125,2.75 1.125,0.625 2.375,1.5 3.875,2.75 3.5,9.25 0,2.375 -3,5.625 -0.625,0.625 -0.875,1.125 -5.875,7 -11.125,10.5 -1.5,1.125 -7,2.875 -2.625,0.875 -4.25,2.25 -1.75,1.5 -1.25,3.5 0.125,0.625 0.75,0.625 6.875,0.125 13.5,-3.75 6.625,-3.625 13.875,-11.125 0.25,-0.375 1.375,-1.5 4.375,-4.375 5,-8 0.75,-5.25 -2.25,-11 -2.5,-5.125 -7.125,-7.25 -5.75,-2.75 -14.875,-3.25 -6.375,-0.25 -13,1.75 -4,1.375 -4.625,4.125 -0.75,4.75 0,15.25 0.375,2.625 0.375,5 0.875,22.125 1.375,30 1.125,20.625 2.5,34.75 v 6.375 q 0.5,1.75 2,2.5 2.75,1.375 5.5,-1.125 1.625,-1.375 1.25,-3 z"
         id="path167"
         inkscape:connector-curvature="0" />
      <path
         d="m 302.3574,337.58984 q -2.125,-18 -3.5,-34.75 -1.875,-21.75 -2.25,-38 -0.5,-15.125 0.875,-15.125 3.25,-0.25 6.375,-1.75 1,-0.25 2.375,-0.125 8.75,0.875 12.125,2.75 1.125,0.625 2.375,1.5 3.875,2.75 3.5,9.25 0,2.375 -3,5.625 -0.625,0.625 -0.875,1.125 -5.875,7 -11.125,10.5 -1.5,1.125 -7,2.875 -2.625,0.875 -4.25,2.25 -1.75,1.5 -1.25,3.5 0.125,0.625 0.75,0.625 6.875,0.125 13.5,-3.75 6.625,-3.625 13.875,-11.125 0.25,-0.375 1.375,-1.5 4.375,-4.375 5,-8 0.75,-5.25 -2.25,-11 -2.5,-5.125 -7.125,-7.25 -5.75,-2.75 -14.875,-3.25 -6.375,-0.25 -13,1.75 -4,1.375 -4.625,4.125 -0.75,4.75 0,15.25 0.375,2.625 0.375,5 0.875,22.125 1.375,30 1.125,20.625 2.5,34.75 v 6.375 q 0.5,1.75 2,2.5 2.75,1.375 5.5,-1.125 1.625,-1.375 1.25,-3 z"
         id="path169"
         inkscape:connector-curvature="0" />
    </g>
    <flowRoot
       xml:space="preserve"
       id="flowRoot131"
       style="font-style:normal;font-weight:normal;font-size:40px;line-height:1.25;font-family:sans-serif;letter-spacing:0px;word-spacing:0px;fill:#000000;fill-opacity:1;stroke:none"><flowRegion
         id="flowRegion133"><rect
           id="rect135"
           width="1382.8572"
           height="314.28571"
           x="-77.14286"
           y="-134.28572" /></flowRegion><flowPara
         id="flowPara137" /></flowRoot>  </g>
</svg>
